<mxfile host="app.diagrams.net" modified="2020-09-18T04:06:11.277Z" agent="5.0 (Windows NT 10.0; Win64; x64) AppleWebKit/537.36 (KHTML, like Gecko) Chrome/85.0.4183.102 Safari/537.36" etag="noH5aMX0pjRKWBdyTmqf" version="13.7.3" type="github">
  <diagram id="KB32Bpzx1HNIWIFh3gn_" name="Page-1">
    <mxGraphModel dx="526" dy="450" grid="1" gridSize="10" guides="1" tooltips="1" connect="1" arrows="1" fold="1" page="1" pageScale="1" pageWidth="827" pageHeight="1169" math="0" shadow="0">
      <root>
        <mxCell id="0" />
        <mxCell id="1" parent="0" />
        <mxCell id="O3o37u2ekzVFeCQ_OCCV-4" style="edgeStyle=orthogonalEdgeStyle;rounded=0;orthogonalLoop=1;jettySize=auto;html=1;entryX=0.5;entryY=0;entryDx=0;entryDy=0;" edge="1" parent="1" source="O3o37u2ekzVFeCQ_OCCV-1" target="O3o37u2ekzVFeCQ_OCCV-3">
          <mxGeometry relative="1" as="geometry" />
        </mxCell>
        <mxCell id="O3o37u2ekzVFeCQ_OCCV-5" style="edgeStyle=orthogonalEdgeStyle;rounded=0;orthogonalLoop=1;jettySize=auto;html=1;entryX=0;entryY=0.5;entryDx=0;entryDy=0;" edge="1" parent="1" source="O3o37u2ekzVFeCQ_OCCV-1" target="O3o37u2ekzVFeCQ_OCCV-2">
          <mxGeometry relative="1" as="geometry" />
        </mxCell>
        <mxCell id="O3o37u2ekzVFeCQ_OCCV-1" value="inicio" style="rounded=1;whiteSpace=wrap;html=1;" vertex="1" parent="1">
          <mxGeometry x="90" y="120" width="120" height="60" as="geometry" />
        </mxCell>
        <mxCell id="O3o37u2ekzVFeCQ_OCCV-6" style="edgeStyle=orthogonalEdgeStyle;rounded=0;orthogonalLoop=1;jettySize=auto;html=1;" edge="1" parent="1" source="O3o37u2ekzVFeCQ_OCCV-2">
          <mxGeometry relative="1" as="geometry">
            <mxPoint x="150" y="240" as="targetPoint" />
            <Array as="points">
              <mxPoint x="354" y="230" />
              <mxPoint x="150" y="230" />
            </Array>
          </mxGeometry>
        </mxCell>
        <mxCell id="O3o37u2ekzVFeCQ_OCCV-2" value="definir 6 pines" style="rounded=1;whiteSpace=wrap;html=1;" vertex="1" parent="1">
          <mxGeometry x="294" y="120" width="120" height="60" as="geometry" />
        </mxCell>
        <mxCell id="O3o37u2ekzVFeCQ_OCCV-14" style="edgeStyle=orthogonalEdgeStyle;rounded=0;orthogonalLoop=1;jettySize=auto;html=1;entryX=0.5;entryY=0;entryDx=0;entryDy=0;" edge="1" parent="1" source="O3o37u2ekzVFeCQ_OCCV-3" target="O3o37u2ekzVFeCQ_OCCV-7">
          <mxGeometry relative="1" as="geometry" />
        </mxCell>
        <mxCell id="O3o37u2ekzVFeCQ_OCCV-3" value="loop" style="rounded=1;whiteSpace=wrap;html=1;" vertex="1" parent="1">
          <mxGeometry x="90" y="270" width="120" height="60" as="geometry" />
        </mxCell>
        <mxCell id="O3o37u2ekzVFeCQ_OCCV-15" style="edgeStyle=orthogonalEdgeStyle;rounded=0;orthogonalLoop=1;jettySize=auto;html=1;entryX=0;entryY=0.5;entryDx=0;entryDy=0;" edge="1" parent="1" source="O3o37u2ekzVFeCQ_OCCV-7" target="O3o37u2ekzVFeCQ_OCCV-8">
          <mxGeometry relative="1" as="geometry" />
        </mxCell>
        <mxCell id="O3o37u2ekzVFeCQ_OCCV-7" value="enciende led rojo" style="rounded=1;whiteSpace=wrap;html=1;" vertex="1" parent="1">
          <mxGeometry x="90" y="380" width="120" height="60" as="geometry" />
        </mxCell>
        <mxCell id="O3o37u2ekzVFeCQ_OCCV-16" style="edgeStyle=orthogonalEdgeStyle;rounded=0;orthogonalLoop=1;jettySize=auto;html=1;" edge="1" parent="1" source="O3o37u2ekzVFeCQ_OCCV-8" target="O3o37u2ekzVFeCQ_OCCV-10">
          <mxGeometry relative="1" as="geometry">
            <Array as="points">
              <mxPoint x="320" y="470" />
              <mxPoint x="150" y="470" />
            </Array>
          </mxGeometry>
        </mxCell>
        <mxCell id="O3o37u2ekzVFeCQ_OCCV-8" value="espera 6 segundos" style="rounded=1;whiteSpace=wrap;html=1;" vertex="1" parent="1">
          <mxGeometry x="260" y="380" width="120" height="60" as="geometry" />
        </mxCell>
        <mxCell id="O3o37u2ekzVFeCQ_OCCV-18" style="edgeStyle=orthogonalEdgeStyle;rounded=0;orthogonalLoop=1;jettySize=auto;html=1;entryX=0.5;entryY=0;entryDx=0;entryDy=0;" edge="1" parent="1" source="O3o37u2ekzVFeCQ_OCCV-9" target="O3o37u2ekzVFeCQ_OCCV-11">
          <mxGeometry relative="1" as="geometry">
            <Array as="points">
              <mxPoint x="330" y="590" />
              <mxPoint x="150" y="590" />
            </Array>
          </mxGeometry>
        </mxCell>
        <mxCell id="O3o37u2ekzVFeCQ_OCCV-9" value="espera 3 segundos" style="rounded=1;whiteSpace=wrap;html=1;" vertex="1" parent="1">
          <mxGeometry x="270" y="510" width="120" height="60" as="geometry" />
        </mxCell>
        <mxCell id="O3o37u2ekzVFeCQ_OCCV-17" style="edgeStyle=orthogonalEdgeStyle;rounded=0;orthogonalLoop=1;jettySize=auto;html=1;entryX=0;entryY=0.5;entryDx=0;entryDy=0;" edge="1" parent="1" source="O3o37u2ekzVFeCQ_OCCV-10" target="O3o37u2ekzVFeCQ_OCCV-9">
          <mxGeometry relative="1" as="geometry" />
        </mxCell>
        <mxCell id="O3o37u2ekzVFeCQ_OCCV-10" value="enciende led amarillo" style="rounded=1;whiteSpace=wrap;html=1;" vertex="1" parent="1">
          <mxGeometry x="90" y="510" width="120" height="60" as="geometry" />
        </mxCell>
        <mxCell id="O3o37u2ekzVFeCQ_OCCV-42" style="edgeStyle=orthogonalEdgeStyle;rounded=0;orthogonalLoop=1;jettySize=auto;html=1;" edge="1" parent="1" source="O3o37u2ekzVFeCQ_OCCV-11" target="O3o37u2ekzVFeCQ_OCCV-32">
          <mxGeometry relative="1" as="geometry" />
        </mxCell>
        <mxCell id="O3o37u2ekzVFeCQ_OCCV-11" value="enciende led verde" style="rounded=1;whiteSpace=wrap;html=1;fontStyle=1" vertex="1" parent="1">
          <mxGeometry x="90" y="610" width="120" height="60" as="geometry" />
        </mxCell>
        <mxCell id="O3o37u2ekzVFeCQ_OCCV-31" style="edgeStyle=orthogonalEdgeStyle;rounded=0;orthogonalLoop=1;jettySize=auto;html=1;entryX=0;entryY=0.5;entryDx=0;entryDy=0;" edge="1" parent="1" source="O3o37u2ekzVFeCQ_OCCV-32" target="O3o37u2ekzVFeCQ_OCCV-34">
          <mxGeometry relative="1" as="geometry" />
        </mxCell>
        <mxCell id="O3o37u2ekzVFeCQ_OCCV-32" value="enciende led rojo 2" style="rounded=1;whiteSpace=wrap;html=1;" vertex="1" parent="1">
          <mxGeometry x="90" y="730" width="120" height="60" as="geometry" />
        </mxCell>
        <mxCell id="O3o37u2ekzVFeCQ_OCCV-33" style="edgeStyle=orthogonalEdgeStyle;rounded=0;orthogonalLoop=1;jettySize=auto;html=1;" edge="1" parent="1" source="O3o37u2ekzVFeCQ_OCCV-34" target="O3o37u2ekzVFeCQ_OCCV-38">
          <mxGeometry relative="1" as="geometry">
            <Array as="points">
              <mxPoint x="320" y="820" />
              <mxPoint x="150" y="820" />
            </Array>
          </mxGeometry>
        </mxCell>
        <mxCell id="O3o37u2ekzVFeCQ_OCCV-34" value="espera 6 segundos" style="rounded=1;whiteSpace=wrap;html=1;" vertex="1" parent="1">
          <mxGeometry x="260" y="730" width="120" height="60" as="geometry" />
        </mxCell>
        <mxCell id="O3o37u2ekzVFeCQ_OCCV-35" style="edgeStyle=orthogonalEdgeStyle;rounded=0;orthogonalLoop=1;jettySize=auto;html=1;entryX=0.5;entryY=0;entryDx=0;entryDy=0;" edge="1" parent="1" source="O3o37u2ekzVFeCQ_OCCV-36" target="O3o37u2ekzVFeCQ_OCCV-40">
          <mxGeometry relative="1" as="geometry">
            <Array as="points">
              <mxPoint x="330" y="940" />
              <mxPoint x="150" y="940" />
            </Array>
          </mxGeometry>
        </mxCell>
        <mxCell id="O3o37u2ekzVFeCQ_OCCV-36" value="espera 3 segundos" style="rounded=1;whiteSpace=wrap;html=1;" vertex="1" parent="1">
          <mxGeometry x="270" y="860" width="120" height="60" as="geometry" />
        </mxCell>
        <mxCell id="O3o37u2ekzVFeCQ_OCCV-37" style="edgeStyle=orthogonalEdgeStyle;rounded=0;orthogonalLoop=1;jettySize=auto;html=1;entryX=0;entryY=0.5;entryDx=0;entryDy=0;" edge="1" parent="1" source="O3o37u2ekzVFeCQ_OCCV-38" target="O3o37u2ekzVFeCQ_OCCV-36">
          <mxGeometry relative="1" as="geometry" />
        </mxCell>
        <mxCell id="O3o37u2ekzVFeCQ_OCCV-38" value="enciende led amarillo 2" style="rounded=1;whiteSpace=wrap;html=1;" vertex="1" parent="1">
          <mxGeometry x="90" y="860" width="130" height="60" as="geometry" />
        </mxCell>
        <mxCell id="O3o37u2ekzVFeCQ_OCCV-43" style="edgeStyle=orthogonalEdgeStyle;rounded=0;orthogonalLoop=1;jettySize=auto;html=1;" edge="1" parent="1" source="O3o37u2ekzVFeCQ_OCCV-40" target="O3o37u2ekzVFeCQ_OCCV-7">
          <mxGeometry relative="1" as="geometry">
            <Array as="points">
              <mxPoint x="30" y="990" />
              <mxPoint x="30" y="410" />
            </Array>
          </mxGeometry>
        </mxCell>
        <mxCell id="O3o37u2ekzVFeCQ_OCCV-40" value="enciende led verde 2" style="rounded=1;whiteSpace=wrap;html=1;fontStyle=1" vertex="1" parent="1">
          <mxGeometry x="90" y="960" width="120" height="60" as="geometry" />
        </mxCell>
      </root>
    </mxGraphModel>
  </diagram>
</mxfile>
